# xmcd
#
# Track frame offsets:
#	150
#	13326
#	31908
#	50958
#	79623
#	99950
#	117838
#	143445
#	159842
#	183012
#	206298
#	230888
#
# Disc length: 3341 seconds
#
# Revision: 1
# Processed by: cddbd v1.4PL0 Copyright (c) Steve Scherf et al.
# Submitted via: EasyCDDAExtractor 5.0.7
#
DISCID=8f0d0b0c
DTITLE=Doug Cannon - Go With The Flow
DYEAR=2000
DGENRE=Blues
TTITLE0=Rocket Up
TTITLE1=That's In Your Hat Now
TTITLE2=Blue Moon Swing
TTITLE3=River Of Blues
TTITLE4=Midnight's Medicine
TTITLE5=Happiness Cafe
TTITLE6=Is You? Is Me?
TTITLE7=The Traveler
TTITLE8=It Blues Your Mind
TTITLE9=Lucky Day
TTITLE10=A Crush Proof Pack Of Blues
TTITLE11=And The Sun Still Rose
EXTD=
EXTT0=
EXTT1=
EXTT2=
EXTT3=
EXTT4=
EXTT5=
EXTT6=
EXTT7=
EXTT8=
EXTT9=
EXTT10=
EXTT11=
PLAYORDER=
